<svg width="966" height="248" viewBox="0 0 966 248" fill="none" xmlns="http://www.w3.org/2000/svg">
<g filter="url(#filter0_d_73_139)">
<path d="M377.962 197.317C360.43 213.096 338.177 223.75 314.017 227.934C289.857 232.118 264.875 229.643 242.229 220.823C219.584 212.002 200.292 197.232 186.795 178.38C173.297 159.527 166.199 137.44 166.398 114.911C166.598 92.3812 174.085 70.4217 187.915 51.8089C201.744 33.1961 221.294 18.766 244.092 10.3434C266.89 1.92085 291.912 -0.115925 315.995 4.49066C340.077 9.09724 362.138 20.1403 379.387 36.2233L344.022 68.0521C333.655 58.3858 320.396 51.7486 305.921 48.9799C291.447 46.2112 276.408 47.4354 262.706 52.4976C249.004 57.5598 237.254 66.2326 228.942 77.4194C220.63 88.6062 216.13 101.804 216.01 115.345C215.89 128.886 220.156 142.161 228.269 153.492C236.381 164.822 247.976 173.7 261.586 179.001C275.197 184.303 290.212 185.79 304.733 183.276C319.254 180.761 332.628 174.357 343.165 164.874L377.962 197.317Z" fill="black"/>
</g>
<g filter="url(#filter1_d_73_139)">
<path d="M351.512 98.2683L348.012 98.2377L347.69 134.636L351.19 134.667L351.177 136.067L333.678 135.914L333.69 134.514L337.19 134.544L337.489 100.736L323.312 136.523L321.702 136.509L306.489 99.4839L306.181 134.273L311.781 134.322L311.769 135.722L300.569 135.623L300.582 134.224L304.781 134.26L305.104 97.8617L300.834 97.8243L300.846 96.4244L316.456 96.5611L327.143 122.906L337.525 96.7457L351.524 96.8684L351.512 98.2683ZM390.051 135.007C389.58 135.47 388.69 135.882 387.38 136.244C386.07 136.559 384.552 136.709 382.826 136.694C378.999 136.661 376.606 135.496 375.646 133.201C373.291 135.607 369.711 136.789 364.904 136.747C362.338 136.725 360.22 136.123 358.55 134.941C356.928 133.714 356.127 131.933 356.147 129.6C356.175 126.474 357.41 124.081 359.851 122.422C362.293 120.717 366.55 119.541 372.623 118.894L375.426 118.569L375.456 115.139C375.492 111.079 375.213 108.346 374.619 106.941C374.024 105.536 372.817 104.825 370.997 104.809C369.224 104.794 368.078 105.04 367.561 105.549C367.043 106.011 366.852 106.57 366.986 107.224C367.12 107.832 367.346 108.651 367.664 109.68C367.982 110.71 368.138 111.528 368.132 112.134C368.12 113.581 367.595 114.813 366.56 115.831C365.571 116.802 364.353 117.282 362.907 117.269C361.507 117.257 360.298 116.756 359.28 115.767C358.262 114.731 357.76 113.49 357.773 112.044C357.794 109.664 359.025 107.644 361.466 105.986C363.955 104.281 367.626 103.45 372.479 103.492C377.379 103.535 380.847 104.522 382.883 106.453C384.966 108.385 385.986 111.778 385.943 116.631L385.832 129.23C385.81 131.703 386.099 133.269 386.7 133.928C387.301 134.54 388.42 134.666 390.057 134.307L390.051 135.007ZM365.889 128.285C366.107 130.061 366.748 131.443 367.813 132.432C368.878 133.375 370.11 133.853 371.51 133.865C372.957 133.878 374.223 133.189 375.309 131.798L375.414 119.899L372.891 120.226C370.742 120.488 368.985 121.289 367.619 122.63C366.301 123.972 365.724 125.857 365.889 128.285ZM430.994 135.366L434.494 135.397L434.481 136.797L416.982 136.643L416.994 135.243L420.494 135.274L420.668 115.675C420.697 112.362 420.228 110.001 419.26 108.592C418.293 107.184 416.829 106.471 414.869 106.454C412.209 106.43 410.073 107.812 408.462 110.598L408.245 135.167L411.744 135.197L411.732 136.597L394.233 136.444L394.245 135.044L397.745 135.075L398.005 105.676L394.505 105.645L394.518 104.245L408.517 104.368L408.485 108.008C409.382 106.802 410.768 105.788 412.642 104.964C414.563 104.094 416.62 103.669 418.814 103.688C427.12 103.761 431.233 108.3 431.154 117.307L430.994 135.366ZM473.309 135.737C472.839 136.199 471.948 136.612 470.638 136.973C469.329 137.289 467.811 137.439 466.084 137.424C462.258 137.39 459.864 136.226 458.905 133.93C456.55 136.337 452.969 137.519 448.163 137.477C445.596 137.454 443.478 136.852 441.809 135.671C440.186 134.443 439.385 132.663 439.406 130.33C439.433 127.203 440.668 124.81 443.109 123.152C445.551 121.446 449.809 120.27 455.881 119.623L458.684 119.298L458.715 115.868C458.75 111.808 458.471 109.076 457.877 107.67C457.283 106.265 456.076 105.555 454.256 105.539C452.483 105.523 451.337 105.77 450.819 106.279C450.302 106.741 450.11 107.299 450.244 107.954C450.379 108.561 450.605 109.38 450.923 110.41C451.24 111.439 451.396 112.257 451.391 112.864C451.378 114.31 450.854 115.543 449.818 116.56C448.829 117.532 447.612 118.011 446.165 117.998C444.765 117.986 443.556 117.485 442.538 116.496C441.521 115.461 441.018 114.22 441.031 112.773C441.052 110.393 442.284 108.374 444.725 106.715C447.214 105.01 450.884 104.179 455.738 104.222C460.637 104.265 464.105 105.252 466.142 107.183C468.225 109.115 469.245 112.507 469.202 117.36L469.09 129.96C469.068 132.433 469.358 133.999 469.959 134.657C470.56 135.269 471.679 135.396 473.316 135.037L473.309 135.737ZM449.148 129.015C449.365 130.79 450.007 132.172 451.071 133.162C452.136 134.105 453.369 134.582 454.769 134.594C456.215 134.607 457.481 133.918 458.567 132.527L458.672 120.628L456.149 120.956C454 121.217 452.243 122.018 450.878 123.36C449.559 124.702 448.983 126.587 449.148 129.015ZM486.089 130.738C486.077 132.045 486.91 132.799 488.589 133L500.628 133.106C504.781 133.142 507.667 134.054 509.284 135.842C510.902 137.629 511.442 139.828 510.906 142.436C510.416 145.045 508.808 147.435 506.082 149.604C503.356 151.774 499.614 152.838 494.854 152.796C486.127 152.72 480.539 151.387 478.088 148.799C477.164 147.764 476.778 146.548 476.931 145.149C477.083 143.797 477.606 142.681 478.5 141.802C479.394 140.97 480.403 140.396 481.526 140.079C480.044 138.806 479.311 137.236 479.327 135.369C479.344 133.503 479.918 131.851 481.051 130.414C482.231 128.931 483.572 127.753 485.073 126.879C479.724 124.873 477.072 121.326 477.117 116.239C477.15 112.459 478.902 109.558 482.374 107.535C485.892 105.466 489.845 104.45 494.231 104.489C496.331 104.507 498.428 104.852 500.522 105.524C499.462 104.068 498.94 102.337 498.958 100.33C498.976 98.3235 499.667 96.6728 501.032 95.378C502.444 94.037 504.177 93.3755 506.23 93.3935C508.33 93.4119 509.888 93.9856 510.905 95.1145C511.969 96.1972 512.494 97.4152 512.483 98.7685C512.471 100.122 512.04 101.261 511.192 102.187C510.391 103.114 509.313 103.571 507.96 103.559C506.653 103.548 505.607 103.095 504.822 102.202C504.036 101.308 503.648 100.418 503.655 99.5312C503.664 98.5979 503.834 97.806 504.166 97.1556C504.546 96.4589 504.736 96.0639 504.737 95.9705C504.604 95.2227 504.139 95.0086 503.343 95.3283C502.546 95.648 501.84 96.3185 501.225 97.3398C500.656 98.3149 500.366 99.4557 500.354 100.762C500.332 103.329 501.457 105.392 503.73 106.952C507.723 109.227 509.702 112.348 509.667 116.314C509.632 120.281 507.949 123.276 504.617 125.301C501.286 127.278 497.358 128.247 492.831 128.207C490.638 128.188 488.703 127.938 487.028 127.457C486.412 128.478 486.099 129.572 486.089 130.738ZM499.167 116.293C499.202 112.279 498.76 109.545 497.839 108.091C496.919 106.636 495.525 105.9 493.659 105.884C491.839 105.868 490.502 106.603 489.649 108.089C488.796 109.528 488.353 112.208 488.318 116.127C488.283 120.047 488.702 122.804 489.575 124.399C490.447 125.993 491.77 126.798 493.544 126.814C495.364 126.83 496.747 126.072 497.694 124.54C498.641 123.008 499.132 120.259 499.167 116.293ZM500.128 142.202L488.368 142.099C486.128 142.079 484.242 141.666 482.709 140.859C482.026 144.213 482.843 146.787 485.161 148.581C487.524 150.422 490.76 151.36 494.866 151.396C498.973 151.432 502.388 150.435 505.113 148.406C506.381 147.484 507.089 146.556 507.238 145.624C507.386 144.692 506.856 143.894 505.649 143.23C504.441 142.566 502.601 142.224 500.128 142.202ZM547.244 123.784L526.105 123.599C526.499 131.816 529.659 135.95 535.585 136.002C537.172 136.016 538.972 135.659 540.985 134.93C543.045 134.201 544.547 133.164 545.493 131.819L546.466 132.527C545.425 134.245 543.662 135.653 541.179 136.751C538.696 137.85 536.218 138.388 533.744 138.366C531.318 138.345 529.127 138.092 527.171 137.609C525.215 137.078 523.31 136.221 521.453 135.038C519.597 133.855 518.143 132.093 517.09 129.75C516.084 127.408 515.596 124.58 515.625 121.267C515.675 115.62 517.275 111.458 520.426 108.778C523.577 106.053 527.369 104.709 531.802 104.748C536.282 104.787 539.978 106.313 542.892 109.325C545.852 112.338 547.303 117.158 547.244 123.784ZM526.047 122.198L537.457 122.298C537.495 118.005 537.061 114.244 536.156 111.016C535.298 107.789 533.866 106.166 531.859 106.149C529.853 106.131 528.392 107.682 527.478 110.8C526.564 113.872 526.089 117.415 526.054 121.428L526.047 122.198ZM626.054 137.075L629.554 137.106L629.541 138.505L612.042 138.352L612.054 136.952L615.554 136.983L615.728 117.384C615.757 114.07 615.288 111.71 614.32 110.301C613.353 108.893 611.889 108.18 609.929 108.163C608.809 108.153 607.64 108.469 606.42 109.112C605.201 109.754 604.19 110.656 603.386 111.815C603.932 113.5 604.191 115.836 604.164 118.822L604.005 136.882L607.505 136.912L607.492 138.312L589.293 138.153L589.305 136.753L593.505 136.79L593.679 117.19C593.708 113.877 593.239 111.516 592.271 110.108C591.304 108.699 589.84 107.987 587.88 107.969C585.22 107.946 583.084 109.327 581.473 112.113L581.256 136.682L584.755 136.713L584.743 138.113L567.244 137.96L567.256 136.56L570.756 136.59L571.016 107.192L567.516 107.161L567.529 105.761L581.528 105.884L581.496 109.523C582.393 108.318 583.779 107.303 585.653 106.48C587.574 105.61 589.631 105.185 591.825 105.204C597.378 105.252 600.98 106.847 602.633 109.989C603.859 108.506 605.479 107.377 607.493 106.601C609.507 105.779 611.634 105.377 613.874 105.397C622.18 105.47 626.293 110.009 626.214 119.016L626.054 137.075ZM665.501 124.82L644.362 124.635C644.756 132.852 647.916 136.986 653.842 137.038C655.429 137.052 657.229 136.695 659.242 135.966C661.302 135.237 662.805 134.2 663.75 132.855L664.724 133.563C663.682 135.281 661.919 136.689 659.436 137.787C656.953 138.886 654.475 139.424 652.002 139.402C649.575 139.381 647.384 139.128 645.428 138.645C643.473 138.114 641.567 137.257 639.71 136.074C637.854 134.891 636.4 133.129 635.347 130.786C634.341 128.444 633.853 125.616 633.882 122.303C633.932 116.656 635.532 112.494 638.683 109.814C641.834 107.089 645.626 105.745 650.059 105.784C654.539 105.823 658.235 107.349 661.149 110.361C664.109 113.374 665.56 118.194 665.501 124.82ZM644.304 123.234L655.714 123.334C655.752 119.041 655.318 115.28 654.414 112.052C653.555 108.825 652.123 107.202 650.117 107.185C648.11 107.167 646.649 108.718 645.735 111.836C644.821 114.908 644.347 118.451 644.311 122.464L644.304 123.234Z" fill="white"/>
</g>
<defs>
<filter id="filter0_d_73_139" x="164.394" y="0.0841064" width="232.993" height="247.832" filterUnits="userSpaceOnUse" color-interpolation-filters="sRGB">
<feFlood flood-opacity="0" result="BackgroundImageFix"/>
<feColorMatrix in="SourceAlpha" type="matrix" values="0 0 0 0 0 0 0 0 0 0 0 0 0 0 0 0 0 0 127 0" result="hardAlpha"/>
<feOffset dx="8" dy="8"/>
<feGaussianBlur stdDeviation="5"/>
<feComposite in2="hardAlpha" operator="out"/>
<feColorMatrix type="matrix" values="0 0 0 0 0 0 0 0 0 0 0 0 0 0 0 0 0 0 0.25 0"/>
<feBlend mode="normal" in2="BackgroundImageFix" result="effect1_dropShadow_73_139"/>
<feBlend mode="normal" in="SourceGraphic" in2="effect1_dropShadow_73_139" result="shape"/>
</filter>
<filter id="filter1_d_73_139" x="298.362" y="89.5946" width="381.404" height="78.6942" filterUnits="userSpaceOnUse" color-interpolation-filters="sRGB">
<feFlood flood-opacity="0" result="BackgroundImageFix"/>
<feColorMatrix in="SourceAlpha" type="matrix" values="0 0 0 0 0 0 0 0 0 0 0 0 0 0 0 0 0 0 127 0" result="hardAlpha"/>
<feOffset dx="6" dy="6"/>
<feGaussianBlur stdDeviation="4"/>
<feComposite in2="hardAlpha" operator="out"/>
<feColorMatrix type="matrix" values="0 0 0 0 0 0 0 0 0 0 0 0 0 0 0 0 0 0 0.25 0"/>
<feBlend mode="normal" in2="BackgroundImageFix" result="effect1_dropShadow_73_139"/>
<feBlend mode="normal" in="SourceGraphic" in2="effect1_dropShadow_73_139" result="shape"/>
</filter>
</defs>
</svg>
