<?xml version="1.0"?>
<svg xmlns="http://www.w3.org/2000/svg" viewBox="0 0 64 64" width="512" height="512"><g id="Outline"><path d="M21,22A10,10,0,1,0,11,12,10.011,10.011,0,0,0,21,22ZM21,4a8,8,0,1,1-8,8A8.009,8.009,0,0,1,21,4Z"/><rect x="20" y="29" width="2" height="2"/><path d="M61.109,29.006A34.916,34.916,0,0,1,48.47,25.117a1,1,0,0,0-.94,0,34.916,34.916,0,0,1-12.639,3.889A1,1,0,0,0,34,30V41.845A21.816,21.816,0,0,0,47.615,61.923a1,1,0,0,0,.77,0A21.816,21.816,0,0,0,62,41.845V30A1,1,0,0,0,61.109,29.006ZM60,41.845A19.805,19.805,0,0,1,48,59.912,19.805,19.805,0,0,1,36,41.845V30.885a36.882,36.882,0,0,0,12-3.756,36.874,36.874,0,0,0,12,3.756Z"/><path d="M39.618,41.2,38.2,42.617l6,6a1,1,0,0,0,1.414,0l12-12L56.2,35.2,44.911,46.5Z"/><path d="M27,39H22.447L14.969,24.62A14.22,14.22,0,0,0,28.2,24H30a7.958,7.958,0,0,1,5.992,2.739c.749-.114,1.49-.258,2.225-.422A9.984,9.984,0,0,0,30,22H27.92a1.008,1.008,0,0,0-.534.154,12.159,12.159,0,0,1-12.772,0A1.008,1.008,0,0,0,14.08,22H12A10.011,10.011,0,0,0,2,32V44a5.006,5.006,0,0,0,5,5h3v9h2V49H27a5,5,0,0,0,0-10ZM7,47a3,3,0,0,1-3-3V32a7.958,7.958,0,0,1,1.88-5.141L12.193,39H10v2h3.233l3.12,6Zm11.607,0L7.407,25.461A7.945,7.945,0,0,1,12,24h.393l11.96,23ZM27,47h-.393l-3.12-6H27a3,3,0,0,1,0,6Z"/></g></svg>
