<svg id="Layer_1" height="512" viewBox="0 0 512 512" width="512" xmlns="http://www.w3.org/2000/svg" data-name="Layer 1"><path d="m380.453 42.672a15.092 15.092 0 1 0 -15.092 15.063 15.094 15.094 0 0 0 15.092-15.063zm-15.092 3.063a3.063 3.063 0 1 1 3.092-3.063 3.081 3.081 0 0 1 -3.092 3.063z"/><path d="m110.375 213.12v276.88h-26.875a6 6 0 0 0 0 12h345a6 6 0 0 0 0-12h-113.565a77.008 77.008 0 0 0 19.706-18.15 73.239 73.239 0 0 0 12.845-64.086q-.256-.944-.535-1.895c-7.716-26.355-24.958-46.614-48.941-57.781a12.426 12.426 0 0 0 .672-4.007v-8.115a12.476 12.476 0 0 0 -5.572-10.385 151.79 151.79 0 0 1 12.347-21.787c5.349-7.781 10.2-11.542 15.338-15.525 2-1.554 4.078-3.161 6.174-5.007a11.362 11.362 0 0 0 3.483-11.8c-1.534-5-6.095-7.936-11.609-7.481-4.882.4-11.424-3.395-16.2-6.165a54.19 54.19 0 0 0 -6.571-3.454c-11.708-4.676-19.267 3.245-22.5 6.629-1.108 1.161-5.022 3.294-6.895 4.019-.237.092-.477.175-.717.244-5.588 1.623-8.5 1.369-13.732-3.292-11.57-10.3-21.67-5.167-24.489-3.348-2.957 1.908-4.456 5.194-5.907 8.371a44.608 44.608 0 0 1 -2.106 4.22 4.9 4.9 0 0 1 -.866 1.195 1.275 1.275 0 0 1 -.258.06c-1.071.174-1.293.209-3.42-1.335l-.832-.612a73.556 73.556 0 0 0 -15.219-8.8c-.222-.1-.473-.219-.747-.349-.824-.389-1.849-.875-3-1.32-4.832-1.862-15.459-2.28-20.677-.813a12.351 12.351 0 0 0 -3.955 1.735 12.736 12.736 0 0 0 -4.752 6.893 14.6 14.6 0 0 0 6.1 16.21 74.767 74.767 0 0 1 19.72 18.931 83.81 83.81 0 0 1 10.823 21.043 12.5 12.5 0 0 0 -8.787 11.921v8.115a12.409 12.409 0 0 0 1.445 5.813c-13.98 7-37.363 21.114-47.959 50.071-.558 1.527-1.089 3.085-1.575 4.63a73.286 73.286 0 0 0 11.147 65.96 77.171 77.171 0 0 0 20.664 19.447h-55.2v-276.88c0-38.524 31.979-69.865 71.287-69.865s71.286 31.341 71.286 69.865a6 6 0 0 0 12 0c0-30.671-17.259-57.442-42.723-71.463h8.894a39.22 39.22 0 0 1 16.933 3.868l3.892 1.877a68.724 68.724 0 0 0 71.33-6.945c.131-.1.259-.2.382-.312l9.4-8.342a30.859 30.859 0 0 1 9.975-5.915l4.81 15.729a6 6 0 0 0 5.738 4.245h45.457a6 6 0 0 0 5.955-6.728l-15.157-123.862a6 6 0 0 0 -5.955-5.272h-68.182a6 6 0 0 0 -5.738 7.755l8.561 27.993-26.7 16.827a15.087 15.087 0 0 1 -10.928 1.39c-.124-.03-.249-.058-.375-.081l-56.756-10.418a75.409 75.409 0 0 0 -46.464 6.541 5.911 5.911 0 0 0 -.734.429l-98.157 67.184a6 6 0 0 0 -1.747 8.052 28.744 28.744 0 0 0 38.267 10.44l.449-.241a26.669 26.669 0 0 0 10.174 6.806 81.05 81.05 0 0 0 -27.177 60.443zm97.21 131.441h-1.249a.481.481 0 0 1 -.48-.48v-8.115a.481.481 0 0 1 .48-.48h78.5.031.02 1.313a.481.481 0 0 1 .479.48v8.115a.481.481 0 0 1 -.479.48zm-28.79-70.45a2.7 2.7 0 0 1 -1.285-2.864 2.593 2.593 0 0 1 .144-.377c.084-.026.183-.055.3-.088 2.7-.762 10.669-.483 13.109.457.742.286 1.511.651 2.19.972.353.167.676.319.96.447a61.882 61.882 0 0 1 13 7.508l.915.672c3.122 2.267 6.651 4.4 12.394 3.47 5.324-.864 7.978-4.386 9.511-6.96a54.322 54.322 0 0 0 2.713-5.377 26.923 26.923 0 0 1 1.728-3.414c2.867-1.707 6.066-.928 9.769 2.369 8 7.127 15.028 8.768 25.065 5.854.558-.162 1.13-.357 1.7-.577 1.553-.6 8.012-3.536 11.244-6.924 4.124-4.32 6.05-5.095 9.364-3.77a49.267 49.267 0 0 1 5 2.692c5.476 3.175 12.754 7.394 20.374 7.782-1.156.943-2.334 1.856-3.554 2.8-5.375 4.167-11.467 8.889-17.875 18.211a165.218 165.218 0 0 0 -14.676 26.49h-16.302c.295-4.872 1.628-12.028 6.44-17.514a25.305 25.305 0 0 1 6.977-5.527 6 6 0 1 0 -5.73-10.544 37.273 37.273 0 0 0 -10.27 8.16c-7.289 8.309-9.114 18.652-9.435 25.427h-6.265c-2.518-7.512-7.626-20.331-10.8-25.336a6 6 0 1 0 -10.13 6.434c2.083 3.28 5.795 12.294 8.231 18.9h-18.493a96.193 96.193 0 0 0 -13.569-27.523 87.474 87.474 0 0 0 -22.739-21.85zm-12.2 189.347a61.4 61.4 0 0 1 -9.378-55.257c.432-1.372.9-2.756 1.4-4.112 10.446-28.546 35.309-40.32 47.257-45.979 1.234-.584 2.286-1.085 3.213-1.549h77.113c.3 0 .594-.025.89-.046 24.19 9.115 40.906 27.329 48.342 52.725.163.557.319 1.114.469 1.666a61.32 61.32 0 0 1 -10.8 53.653 64.444 64.444 0 0 1 -51.575 25.441h-54.465a64.415 64.415 0 0 1 -52.471-26.542zm223.976-441.458 13.684 111.862h-34.238l-34.211-111.862zm-287.91 111.775 92.32-63.19a63.341 63.341 0 0 1 38.633-5.313l56.559 10.383a27.053 27.053 0 0 0 19.62-2.671c.094-.052.186-.107.277-.164l24.087-15.18 17.359 56.76a42.871 42.871 0 0 0 -14.427 8.427l-9.21 8.173a56.754 56.754 0 0 1 -58.723 5.59l-3.892-1.876a51.293 51.293 0 0 0 -22.145-5.059h-37.752a22.1 22.1 0 0 1 -21.138-15.655l25 1.128a166.147 166.147 0 0 0 30.1-1.386 6 6 0 1 0 -1.64-11.888 153.757 153.757 0 0 1 -27.916 1.285l-32.2-1.452a6 6 0 0 0 -6.27 5.994c0 .328.015.652.025.977l-3.435 1.8-46.646 25.087a16.773 16.773 0 0 1 -18.586-1.77zm70.862-12.722.433-.227a33.879 33.879 0 0 0 3.384 6.136l-26.859 14.427c-3.509 1.739-8.179.939-11.85-1.57z"/><path d="m296.991 423.089c0-26.034-21.87-47.214-48.753-47.214s-48.754 21.18-48.754 47.214 21.871 47.211 48.754 47.211 48.753-21.177 48.753-47.211zm-48.753 35.211c-20.266 0-36.754-15.8-36.754-35.214s16.488-35.214 36.754-35.214 36.753 15.8 36.753 35.214-16.491 35.214-36.753 35.214z"/><path d="m254.892 397.84v-.19a6 6 0 0 0 -12 0v.268a14.194 14.194 0 0 0 -5.006 3.143 16.406 16.406 0 0 0 -4.65 11.846c.1 6.937 5.305 12.763 12.651 14.167l1.7.326c.16.037.355.1.517.145.053.021.105.042.158.061l.709.266c.233.117.32.168.49.265l.371.211c.056.034.11.068.161.1 1.531.91 3.188 2.571 3.243 3.856.073 1.711-.485 2.27-.695 2.48a6.612 6.612 0 0 1 -4.444 1.369c-1.273-.052-4.106-1.388-4.262-2.752a6 6 0 1 0 -11.922 1.357c.746 6.561 5.99 10.685 10.986 12.431a6 6 0 0 0 11.987-.161 16.191 16.191 0 0 0 6.146-3.764 14.777 14.777 0 0 0 4.193-11.471c-.324-7.6-6.618-12.138-8.895-13.536l-.086-.053-.131-.078-.3-.171v-.008l-.4-.225c-.384-.219-.567-.324-1.156-.618a10.736 10.736 0 0 0 -1.013-.442l-.685-.257c-.32-.13-.65-.246-.994-.348-.6-.178-1.149-.333-1.7-.438l-1.734-.333c-1.987-.379-2.891-1.558-2.9-2.557a4.585 4.585 0 0 1 1.029-3.079 4.014 4.014 0 0 1 2.972-.743c3.537.14 4.587 2.393 4.874 3.355l-.035-.134 11.661-2.832a16.894 16.894 0 0 0 -10.84-11.456z"/></svg>